<svg width="40" height="40" viewBox="0 0 40 40" fill="none" xmlns="http://www.w3.org/2000/svg">
<path d="M0 20C0 31.0457 8.95431 40 20 40C31.0457 40 40 31.0457 40 20C40 8.95431 31.0457 0 20 0C8.95431 0 0 8.95431 0 20Z" fill="#0078D7"/>
<path d="M20 26C16.625 26 15.125 24.25 15.125 23C15.125 22.75 15.25 22.375 15.5 22.25C15.75 22 16 22 16.25 22C17.625 22 17.25 24.125 20 24.125C21.375 24.125 22.125 23.25 22.125 22.5C22.125 22 21.875 21.5 21 21.25L18 20.5C15.625 19.875 15.25 18.5 15.25 17.375C15.25 14.75 17.625 13.875 19.875 13.875C21.875 13.875 24.375 15 24.375 16.5C24.375 17.125 23.875 17.5 23.125 17.5C21.875 17.5 22.125 15.75 19.625 15.75C18.375 15.75 17.75 16.375 17.75 17.125C17.75 17.875 18.75 18.25 19.5 18.375L21.75 18.875C24.125 19.375 24.75 20.875 24.75 22.125C24.75 24.5 23.125 26 20 26ZM29.25 21.625C29.375 21.125 29.375 20.5 29.375 20C29.375 17.25 28.125 14.625 26 12.75C23.875 10.875 21 10.25 18.25 10.625C17.5 10.25 16.5 10 15.5 10C13.5 10 11.625 11.125 10.625 12.875C9.625 14.625 9.625 16.75 10.625 18.5C10.125 21.5 11 24.625 13.25 26.875C15.375 29 18.5 30 21.5 29.5C22.375 30 23.25 30.25 24.25 30.25C26.25 30.25 28.125 29.125 29.125 27.375C30.125 25.5 30.25 23.375 29.25 21.625Z" fill="white"/>
</svg>
