<svg width="40" height="40" viewBox="0 0 40 40" fill="none" xmlns="http://www.w3.org/2000/svg">
<path d="M0 20C0 31.0457 8.95431 40 20 40C31.0457 40 40 31.0457 40 20C40 8.95431 31.0457 0 20 0C8.95431 0 0 8.95431 0 20Z" fill="#FF0000"/>
<path d="M29.5 15.125C29.25 14.25 28.625 13.625 27.75 13.375C26.25 13 19.875 13 19.875 13C19.875 13 13.625 13 12 13.375C11.125 13.625 10.5 14.25 10.25 15.125C10 16.75 10 20 10 20C10 20 10 23.25 10.375 24.875C10.625 25.75 11.25 26.375 12.125 26.625C13.625 27 20 27 20 27C20 27 26.25 27 27.875 26.625C28.75 26.375 29.375 25.75 29.625 24.875C30 23.25 30 20 30 20C30 20 30 16.75 29.5 15.125ZM18 23V17L23.25 20L18 23Z" fill="white"/>
</svg>
